# xmcd CD database file
#
# Track frame offsets:
#	150
#	33348
#	75751
#	90495
#	122211
#	140125
#	156965
#	180716
#	200897
#	219713
#	240330
#	268819
#	292893
#
# Disc length: 4457 seconds
#
# Revision: 6
# Processed by: cddbd v1.5.2PL0 Copyright (c) Steve Scherf et al.
# Submitted via: CDex 1.51
#
DISCID=b911670d
DTITLE=Various Artist - Vol.3 - Karajan, The great symphonies
DYEAR=2008
DGENRE=Classique
TTITLE0=Beethoven - Symphony N°5 in C minor Op.67 - I. Allegro con brio  [Philharmonia Orchestra, mono]
TTITLE1=Beethoven - Symphony N°6 in F ''Pastoral'' Op.68 - V. Allegretto  [Philharmonia Orchestra, mono]
TTITLE2=Beethoven - Symphony N°7 in A Op.92 - II. Allegretto (opening)  [Philharmonia Orchestra, mono]
TTITLE3=Beethoven - Symphony N°7 in A Op.92 - IV. Allegro con brio
TTITLE4=Beethoven - Symphony N°8 in F Op.93 - II: Allegretto scherzando  [Philharmonia Orchestra]
TTITLE5=Beethoven - Symphony N°8 in F Op.93 - IV: Allegro vivace (conclusion)
TTITLE6=Beethoven - Symphony N°9 in D minor ''Choral'' Op.125 - IV. Ode to Joy  [Philharmonia Orchestra, mono]
TTITLE7=Haydn - Symphony N°104 in D ''London'' - III. Menuetto (Allegro) and Trio  [Berliner Philharmoniker, 1976]
TTITLE8=Schubert - Symphony N°8 in B minor ''Unfinished'' D759 - I. Allegro moderato  [Philharmonia Orchestra,1976]
TTITLE9=Dvorak - Symphony N°9 ''From the New World'' - II. Largo (opening)  [Philharmonia Orchestra,1977]
TTITLE10=Tchaikovsky - Symphony N°5 in E minor Op.64 - III. Valse (Allegro moderato)  [Philharmonia Orchestra, 1972]
TTITLE11=Tchaikovsky - Symphony N°6 in B minor Op.74 - I. Adagio - Allegro non troppo  [Philharmonia Orchestra, 1959]
TTITLE12=Sibelius - Symphony N°5 in E flat Op.82 - III. Allegro molto - Largamente assai  [Berliner Philharmoniker, 1977]
EXTD=YEAR: 2008
EXTT0=
EXTT1=
EXTT2=
EXTT3=
EXTT4=
EXTT5=
EXTT6=
EXTT7=
EXTT8=
EXTT9=
EXTT10=
EXTT11=
EXTT12=
PLAYORDER=
